<svg xmlns="http://www.w3.org/2000/svg" viewBox="0 0 299.2 248.4"><title>hospital_icon</title><g id="Layer_2" data-name="Layer 2"><g id="Layer_6" data-name="Layer 6"><g id="hospital_icon"><g id="groundlevel" opacity="0.02"><path d="M297.7,248.4H1.5c-.8,0-1.4-1.3-1.4-2.8s.6-2.9,1.4-2.9H297.7c.8,0,1.4,1.3,1.4,2.9S298.5,248.4,297.7,248.4Z" fill="#107bc0"/></g><g opacity="0.5"><path d="M254.2,242.6c-1.1-.1-.8-2.4-.8-3.1V151.4c0-1.1-.1-2.3,0-3.4s1.5-1.2,1.6,0a4,4,0,0,1,0,1.1v92.2C255,241.8,255,242.6,254.2,242.6Z" fill="#107bc0" opacity="0.1"/><path d="M284.6,157.6c0,13.4-7.1,27.3-19.9,32.7a27,27,0,0,1-18.8.8,30.7,30.7,0,0,1-15-11.3c-8.3-11.5-9.2-27.7-2.7-40.2a33,33,0,0,1,13.5-13.7,26.5,26.5,0,0,1,18.5-2.4c13.3,3,22.2,15.6,24,28.6A33.9,33.9,0,0,1,284.6,157.6Z" fill="#107bc0" opacity="0.2"/></g><path d="M38.2,242.6c-.5,0-.4-1.2-.4-1.5V196.9c.1-.5.8-.5.8,0v45C38.6,242.2,38.6,242.6,38.2,242.6Z" fill="#107bc0" opacity="0.1"/><path d="M52.9,201.6c0,6.5-3.5,13.1-9.6,15.7a13,13,0,0,1-9.1.4,14.3,14.3,0,0,1-7.2-5.4,18.8,18.8,0,0,1-1.3-19.4,15.3,15.3,0,0,1,6.5-6.6,13.1,13.1,0,0,1,8.9-1.2c6.4,1.5,10.7,7.5,11.6,13.8A24.5,24.5,0,0,1,52.9,201.6Z" fill="#107bc0" opacity="0.2"/><g id="icon_bg"><path d="M290.6,142.2c10.3-23.4,12.7-51.1-.1-73.4-8.8-15.2-23.9-26.6-40.3-34.7S216,21,198.4,15.5C166.7,5.6,132.7-5.7,100.7,3.2c-29.1,8.2-50,31.2-69.2,53.2C20.6,68.9,9.3,82.2,6.5,98.1c-2.1,11.9.9,24.2-1.6,36.1-1.8,8.9-6.8,17.9-4.2,26.7C2.4,166.5,7,171,11.5,175.1c32.8,30,71.8,55.7,116.6,64.8,26.4,5.3,54.8,3.9,80.2-4.9a113.5,113.5,0,0,0,35.4-19.6c5.4-4.4,7.4-7.4,9.2-13.7s4.8-10.5,9.4-16.1C273.4,172.2,283.6,157.9,290.6,142.2Z" fill="#107bc0" opacity="0.02"/><path d="M242.9,165.3c6.8-13.3,8.4-29.2-.1-41.9-5.8-8.8-15.8-15.3-26.6-19.9S193.6,96,181.9,92.9c-21-5.7-43.5-12.2-64.7-7C98,90.5,84.1,103.7,71.4,116.3c-7.2,7.1-14.7,14.7-16.5,23.8-1.4,6.8.6,13.9-1,20.7-1.3,5.1-4.5,10.2-2.8,15.2,1.1,3.3,4.2,5.8,7.1,8.2,21.7,17.1,47.6,31.8,77.2,37a115.7,115.7,0,0,0,53-2.8,81,81,0,0,0,23.5-11.2c3.6-2.5,4.9-4.2,6.1-7.8s3.2-6,6.2-9.2C231.5,182.5,238.3,174.3,242.9,165.3Z" fill="#107bc0" opacity="0.02"/></g><rect x="60.3" y="146.6" width="63.9" height="95.82" fill="#b0bec5"/><rect x="73.1" y="199.8" width="12.8" height="31.94" fill="#117bbf"/><rect x="98.7" y="199.8" width="12.8" height="31.94" fill="#117bbf"/><rect x="73.1" y="157.3" width="12.8" height="31.94" fill="#117bbf"/><rect x="98.7" y="157.3" width="12.8" height="31.94" fill="#117bbf"/><rect x="57.1" y="144.3" width="70.3" height="3.19" fill="#0a4063"/><rect x="58.7" y="147.2" width="67.1" height="1.6" fill="#063954"/><rect x="60.3" y="149.1" width="63.9" height="1.6" fill="#90a4ae"/><rect x="175" y="146.6" width="63.9" height="95.82" fill="#b0bec5"/><rect x="187.8" y="199.8" width="12.8" height="31.94" fill="#5298d2"/><rect x="213.3" y="199.8" width="12.8" height="31.94" fill="#5298d2"/><rect x="187.8" y="157.3" width="12.8" height="31.94" fill="#5298d2"/><rect x="213.3" y="157.3" width="12.8" height="31.94" fill="#5298d2"/><rect x="171.8" y="144.3" width="70.3" height="3.19" fill="#0a4063"/><rect x="173.4" y="147.2" width="67.1" height="1.6" fill="#063954"/><rect x="175" y="149.1" width="63.9" height="1.6" fill="#90a4ae"/><rect x="117.8" y="114.7" width="63.9" height="127.76" fill="#cfd8dc"/><rect x="114.6" y="113.3" width="70.3" height="3.19" fill="#0a4063"/><rect x="117.8" y="118" width="63.9" height="1.6" fill="#b0bec5"/><rect x="116.2" y="116.5" width="67.1" height="1.6" fill="#063954"/><path d="M132.4,126.4h.8v2.2H136v-2.2h.7v5.4H136v-2.5h-2.8v2.5h-.8Z" fill="#e53a35"/><path d="M137.8,129.1a2.8,2.8,0,0,1,2.8-2.9,2.8,2.8,0,0,1,2.8,2.9,2.7,2.7,0,0,1-2.8,2.8A2.7,2.7,0,0,1,137.8,129.1Zm4.8,0a2.1,2.1,0,1,0-4.1,0,2,2,0,0,0,2.1,2.1A2,2,0,0,0,142.6,129.1Z" fill="#e53a35"/><path d="M144.6,130.7a1.3,1.3,0,0,0,1.2.5,1,1,0,0,0,1.1-.9c0-1.2-2.7-.4-2.7-2.6a1.6,1.6,0,0,1,1.8-1.5,1.9,1.9,0,0,1,1.6.6l-.6.6a1.1,1.1,0,0,0-1-.5c-.8,0-1,.5-1,.8s2.6.6,2.6,2.6a1.6,1.6,0,0,1-1.8,1.6,2.3,2.3,0,0,1-1.8-.7Z" fill="#e53a35"/><path d="M148.7,126.4h1.9c1.4,0,1.8.8,1.8,1.5s-.4,1.5-1.8,1.5h-1.1v2.4h-.8Zm.8,2.4h.9c.6,0,1.2-.2,1.2-.9s-.6-.9-1.2-.9h-.9Z" fill="#e53a35"/><path d="M153.3,126.4h.7v5.4h-.7Z" fill="#e53a35"/><path d="M156.5,127.1h-1.7v-.7H159v.7h-1.7v4.7h-.8Z" fill="#e53a35"/><path d="M160.8,126.4h.7l2.3,5.4h-.9l-.5-1.3h-2.6l-.5,1.3h-.9Zm1.3,3.4-1-2.5h0l-1,2.5Z" fill="#e53a35"/><path d="M164.5,126.4h.7v4.7h2.5v.7h-3.2Z" fill="#e53a35"/><rect x="127.4" y="140.1" width="44.7" height="47.91" fill="#b0bec5"/><rect x="127.3" y="139.7" width="44.7" height="1.6" fill="#78909c"/><rect x="120.9" y="187.4" width="57.5" height="4.79" fill="#0a4063"/><rect x="120.9" y="237.6" width="57.5" height="4.79" fill="#c3996b"/><rect x="121" y="240.7" width="57.5" height="1.6" fill="#a87c4f"/><rect x="125.7" y="232.8" width="47.9" height="4.79" fill="#c3996b"/><rect x="125.8" y="236" width="47.9" height="1.6" fill="#a87c4f"/><rect x="127.7" y="192.4" width="3.2" height="41.52" fill="#c3996b"/><rect x="168.9" y="192.4" width="3.2" height="41.52" fill="#c3996b"/><rect x="127.7" y="192.2" width="3.2" height="3.19" fill="#8a5d3b" opacity="0.3"/><rect x="168.9" y="192.2" width="3.2" height="3.19" fill="#8a5d3b" opacity="0.3"/><rect x="134.1" y="148.5" width="12.8" height="31.94" fill="#5298d2"/><rect x="152.9" y="148.5" width="12.8" height="31.94" fill="#5298d2"/><rect x="134.1" y="200.4" width="14.3" height="31.94" fill="#5298d2" stroke="#fff" stroke-miterlimit="10" stroke-width="2"/><rect x="150.6" y="200.4" width="15.1" height="31.94" fill="#5298d2" stroke="#fff" stroke-miterlimit="10" stroke-width="2"/><rect x="130.9" y="192.2" width="38" height="17.05" fill="#90a4ae" opacity="0.3"/></g></g></g></svg>