<svg width="38" height="48" viewBox="0 0 38 48" fill="none" xmlns="http://www.w3.org/2000/svg">
<path fill-rule="evenodd" clip-rule="evenodd" d="M5 0.866577C3.76233 0.866577 2.57534 1.35824 1.70017 2.23341C0.825001 3.10858 0.333336 4.29557 0.333336 5.53324V42.8666C0.333336 44.1043 0.825001 45.2912 1.70017 46.1664C2.57534 47.0416 3.76233 47.5332 5 47.5332H33C34.2377 47.5332 35.4247 47.0416 36.2998 46.1664C37.175 45.2912 37.6667 44.1043 37.6667 42.8666V11.1659C37.6664 9.92833 37.1746 8.74154 36.2993 7.86658L30.6667 2.23391C29.7917 1.35868 28.6049 0.866841 27.3673 0.866577H5ZM5 5.53324H27.3673L33 11.1659V42.8666H5V5.53324ZM28.8887 21.3836C29.1115 21.1683 29.2893 20.9109 29.4116 20.6262C29.5339 20.3415 29.5982 20.0353 29.6009 19.7255C29.6036 19.4157 29.5446 19.1084 29.4273 18.8217C29.3099 18.5349 29.1367 18.2744 28.9176 18.0553C28.6985 17.8362 28.438 17.663 28.1512 17.5457C27.8645 17.4283 27.5572 17.3693 27.2474 17.372C26.9376 17.3747 26.6314 17.4391 26.3467 17.5613C26.0621 17.6836 25.8046 17.8614 25.5893 18.0842L15.6913 27.9822L12.3897 24.6829C11.9496 24.2579 11.3602 24.0227 10.7484 24.028C10.1366 24.0333 9.55138 24.2787 9.11876 24.7113C8.68614 25.144 8.44075 25.7292 8.43543 26.341C8.43011 26.9528 8.6653 27.5422 9.09034 27.9822L13.8737 32.7679C14.112 33.0064 14.395 33.1955 14.7065 33.3246C15.018 33.4537 15.3518 33.5201 15.689 33.5201C16.0262 33.5201 16.36 33.4537 16.6715 33.3246C16.983 33.1955 17.266 33.0064 17.5043 32.7679L28.8887 21.3836Z" fill="white"/>
</svg>
