<svg width="48" height="41" viewBox="0 0 48 41" fill="none" xmlns="http://www.w3.org/2000/svg">
<path d="M46.8572 15.6072L36.3572 26.1072C35.8641 26.6003 35.1952 26.8774 34.4978 26.8774C33.8004 26.8774 33.1316 26.6003 32.6384 26.1072C32.1453 25.6141 31.8683 24.9452 31.8683 24.2478C31.8683 23.5504 32.1453 22.8816 32.6384 22.3885L38.6562 16.375H32.0938C28.0191 16.3737 24.0595 17.7268 20.8378 20.2215C17.6161 22.7162 15.3149 26.211 14.2962 30.1563C14.2101 30.4901 14.059 30.8036 13.8516 31.079C13.6443 31.3545 13.3847 31.5863 13.0877 31.7614C12.7907 31.9365 12.4622 32.0514 12.1208 32.0995C11.7794 32.1477 11.4319 32.1281 11.0981 32.0419C10.7643 31.9557 10.4508 31.8046 10.1753 31.5973C9.89993 31.3899 9.66806 31.1303 9.49296 30.8334C9.31786 30.5364 9.20297 30.2078 9.15485 29.8665C9.10673 29.5251 9.12632 29.1776 9.2125 28.8438C10.5201 23.7703 13.478 19.2759 17.6204 16.0681C21.7628 12.8603 26.8545 11.1213 32.0938 11.125H38.6562L32.6428 5.10502C32.1497 4.61188 31.8726 3.94304 31.8726 3.24564C31.8726 2.54824 32.1497 1.8794 32.6428 1.38627C33.1359 0.89313 33.8048 0.616089 34.5022 0.616089C35.1996 0.616089 35.8684 0.89313 36.3616 1.38627L46.8616 11.8863C47.1063 12.1305 47.3004 12.4206 47.4327 12.74C47.5651 13.0595 47.6329 13.4019 47.6325 13.7476C47.6321 14.0934 47.5634 14.4357 47.4304 14.7548C47.2973 15.0739 47.1025 15.3636 46.8572 15.6072ZM38 35.625H5.625V10.25C5.625 9.55382 5.34844 8.88614 4.85616 8.39386C4.36387 7.90158 3.69619 7.62502 3 7.62502C2.30381 7.62502 1.63613 7.90158 1.14384 8.39386C0.651562 8.88614 0.375 9.55382 0.375 10.25V36.5C0.375 37.6603 0.835936 38.7731 1.65641 39.5936C2.47688 40.4141 3.58968 40.875 4.75 40.875H38C38.6962 40.875 39.3639 40.5985 39.8562 40.1062C40.3484 39.6139 40.625 38.9462 40.625 38.25C40.625 37.5538 40.3484 36.8861 39.8562 36.3939C39.3639 35.9016 38.6962 35.625 38 35.625Z" fill="white"/>
</svg>
